<svg width="29" height="32" viewBox="0 0 29 32" fill="none" xmlns="http://www.w3.org/2000/svg">
<g clip-path="url(#clip0_8261_61990)">
<path d="M28.7884 9.0764L29.0021 3.81353C29.0021 3.81353 22.3388 -1.45144 19.7468 0.391198C19.7468 0.391198 19.5289 3.59898 17.0585 5.54679C15.5624 6.72473 13.4355 6.72473 11.9415 5.54679C9.4711 3.59898 9.25527 0.391198 9.25527 0.391198C6.6612 -1.45144 0 3.81353 0 3.81353L0.213728 9.0764C2.39501 8.18874 5.54227 7.30528 5.98439 10.3322C6.19184 11.7499 3.41965 25.7758 3.41965 25.7758C10.2275 24.9765 11.0238 31.9347 11.0238 31.9347L14.324 31.9936V32L14.5 31.9978H14.676V31.9957L17.9762 31.9368C17.9762 31.9368 18.7725 24.9786 25.5803 25.7779C25.5803 25.7779 22.8082 11.752 23.0156 10.3343C23.4577 7.30739 26.605 8.19084 28.7863 9.0785L28.7884 9.0764Z" fill="#B3C09B"/>
<path d="M14.5 31.9979H14.676V31.9958L17.9762 31.9369C17.9762 31.9369 18.7725 24.9786 25.5803 25.778C25.5803 25.778 22.8082 11.7521 23.0156 10.3343C23.4577 7.30744 26.605 8.19089 28.7863 9.07855L29 3.81569C29 3.81569 22.3388 -1.45139 19.7468 0.391247C19.7468 0.391247 19.5289 3.59903 17.0585 5.54684C16.3104 6.13581 15.4052 6.43029 14.5 6.43029" fill="#9BA58B"/>
<path d="M14.4999 10.2144C14.7974 9.50345 15.6817 8.99862 16.5596 8.99862C17.6974 8.99862 18.6194 9.84842 18.6194 10.8938C18.6194 12.7828 16.6204 14.638 14.4999 15.4478C12.3815 14.638 10.3804 12.7828 10.3804 10.8938C10.3804 9.84632 11.3023 8.99862 12.4401 8.99862C13.3181 8.99862 14.2023 9.50345 14.4999 10.2144Z" fill="#C9D2BA"/>
<path d="M14.5 10.2144C14.7975 9.50345 15.6818 8.99862 16.5598 8.99862C17.6975 8.99862 18.6195 9.84842 18.6195 10.8938C18.6195 12.7828 16.6205 14.638 14.5 15.4478" fill="#B3C09B"/>
</g>
<defs>
<clipPath id="clip0_8261_61990">
<rect width="29" height="32" fill="white"/>
</clipPath>
</defs>
</svg>
