<svg width="24" height="32" viewBox="0 0 24 32" fill="none" xmlns="http://www.w3.org/2000/svg">
<g clip-path="url(#clip0_8261_61968)">
<path d="M14.9642 25.4119H14.3655C13.3545 25.4119 12.5349 26.2245 12.5349 27.2269V30.187C12.5349 31.1894 13.3545 32.002 14.3655 32.002H14.9642C15.9753 32.002 16.7948 31.1894 16.7948 30.187V27.2269C16.7948 26.2245 15.9753 25.4119 14.9642 25.4119Z" fill="#B9C4A7"/>
<path d="M17.8103 7.32815C19.9485 7.32815 21.6818 5.68769 21.6818 3.66408C21.6818 1.64046 19.9485 0 17.8103 0C15.6721 0 13.9387 1.64046 13.9387 3.66408C13.9387 5.68769 15.6721 7.32815 17.8103 7.32815Z" fill="#B9C4A7"/>
<path d="M19.3962 21.6335C19.3962 26.1018 15.8928 28.2717 11.5702 28.2717C7.24755 28.2717 4.19116 26.4648 4.19116 21.9965C4.19116 17.5282 7.24957 13.5452 11.5702 13.5452C15.8908 13.5452 19.3962 17.1672 19.3962 21.6355V21.6335Z" fill="#B9C4A7"/>
<path d="M15.4174 15.9298L15.5327 15.4826C15.7289 14.7285 16.5421 14.2632 17.3411 14.4477L22.8632 15.7353C23.6602 15.9218 24.1517 16.6919 23.9555 17.446L23.8402 17.8932C23.644 18.6473 22.8308 19.1126 22.0318 18.9281L16.5097 17.6405C15.7128 17.454 15.2212 16.6839 15.4174 15.9298Z" fill="#B9C4A7"/>
<path d="M8.58244 15.8676L8.46714 15.4204C8.27093 14.6663 7.45779 14.201 6.6588 14.3855L1.13667 15.6731C0.339707 15.8596 -0.151823 16.6297 0.0443847 17.3838L0.159682 17.831C0.355889 18.5851 1.16904 19.0504 1.96803 18.8659L7.49015 17.5783C8.28712 17.3918 8.77865 16.6217 8.58244 15.8676Z" fill="#B9C4A7"/>
<path d="M5.69602 7.45852C7.83422 7.45852 9.56757 5.81806 9.56757 3.79445C9.56757 1.77083 7.83422 0.130371 5.69602 0.130371C3.55782 0.130371 1.82446 1.77083 1.82446 3.79445C1.82446 5.81806 3.55782 7.45852 5.69602 7.45852Z" fill="#B9C4A7"/>
<path d="M4.85248 5.78991C4.04743 5.48508 3.46285 4.75507 3.42644 3.88066C3.37587 2.6934 4.35084 1.69465 5.60495 1.64652C6.45451 1.61443 7.21102 2.02757 7.62771 2.66532C6.43226 3.45349 5.47145 4.53246 4.85248 5.78791V5.78991Z" fill="#9BA58B"/>
<path d="M19.1331 5.82199C18.4616 4.5906 17.4563 3.54974 16.2285 2.80569C14.9481 2.03156 13.427 1.58032 11.7946 1.58032C7.2353 1.58032 3.54175 5.07794 3.54175 9.3918C3.54175 13.7057 7.23732 15.996 11.7946 15.996C16.3519 15.996 20.0474 13.7077 20.0474 9.3918C20.0474 8.10426 19.7157 6.89093 19.1331 5.81998V5.82199Z" fill="#B9C4A7"/>
<path d="M9.82648 9.39383C9.82648 9.84306 9.42395 10.2081 8.92838 10.2081C8.4328 10.2081 8.03027 9.84306 8.03027 9.39383C8.03027 8.94459 8.4328 8.57959 8.92838 8.57959C9.42395 8.57959 9.82648 8.94459 9.82648 9.39383Z" fill="#9BA58B"/>
<path d="M11.5723 28.2717C11.9 28.2717 12.2195 28.2577 12.5371 28.2336V30.185C12.5371 31.1838 13.3604 32 14.3677 32H14.9644C15.9718 32 16.795 31.1838 16.795 30.185V27.2269C16.795 27.1065 16.7829 26.9902 16.7606 26.8759C18.3768 25.7829 19.3983 24.0421 19.3983 21.6335C19.3983 20.38 19.1232 19.1948 18.6297 18.1359L22.034 18.9301C22.8309 19.1166 23.6441 18.6513 23.8423 17.8952L23.9576 17.448C24.1538 16.6939 23.6623 15.9238 22.8653 15.7373L17.414 14.4658C19.0342 13.3547 20.0496 11.652 20.0496 9.39183C20.0496 8.52143 19.8959 7.68714 19.6168 6.90499C20.8466 6.2913 21.684 5.06994 21.684 3.66408C21.684 1.64051 19.9505 0 17.8125 0C16.3177 0 15.0231 0.802206 14.3778 1.97744C13.5647 1.72274 12.6989 1.58235 11.7968 1.58235" fill="#9BA58B"/>
<path d="M15.2596 9.39383C15.2596 9.84306 14.8571 10.2081 14.3615 10.2081C13.8659 10.2081 13.4634 9.84306 13.4634 9.39383C13.4634 8.94459 13.8659 8.57959 14.3615 8.57959C14.8571 8.57959 15.2596 8.94459 15.2596 9.39383Z" fill="#C9D2BA"/>
<path d="M12.978 11.5357C12.978 11.9389 12.448 12.2637 11.7946 12.2637C11.1413 12.2637 10.6113 11.9368 10.6113 11.5357C10.6113 11.1346 11.1413 10.8077 11.7946 10.8077C12.448 10.8077 12.978 11.1346 12.978 11.5357Z" fill="#9BA58B"/>
<path d="M11.7177 10.8077C12.452 10.7877 12.9698 11.1346 12.9698 11.5357C12.9698 11.9368 12.4297 12.2637 11.6975 12.2617" fill="#C9D2BA"/>
<path d="M12.7493 12.8594C12.7493 13.0318 12.278 13.5793 11.6955 13.5793C11.1129 13.5793 10.6416 13.0318 10.6416 12.8594C10.6416 12.6869 11.1129 12.8052 11.6955 12.8052C12.278 12.8052 12.7493 12.6869 12.7493 12.8594Z" fill="#9BA58B"/>
<path d="M11.6956 12.8052C12.2781 12.8052 12.7494 12.6869 12.7494 12.8594C12.7494 13.0318 12.2781 13.5793 11.6956 13.5793" fill="#C9D2BA"/>
<path d="M8.78089 25.4119H8.18216C7.17115 25.4119 6.35156 26.2245 6.35156 27.2269V30.187C6.35156 31.1894 7.17115 32.002 8.18216 32.002H8.78089C9.7919 32.002 10.6115 31.1894 10.6115 30.187V27.2269C10.6115 26.2245 9.7919 25.4119 8.78089 25.4119Z" fill="#B9C4A7"/>
<path d="M11.6552 18.2722C11.8797 17.7648 12.5492 17.4059 13.2127 17.4059C14.0724 17.4059 14.7702 18.0115 14.7702 18.7576C14.7702 20.1033 13.2592 21.4249 11.6572 22.0025C10.0552 21.4249 8.54419 20.1033 8.54419 18.7576C8.54419 18.0115 9.24204 17.4059 10.1017 17.4059C10.7652 17.4059 11.4347 17.7648 11.6592 18.2722H11.6552Z" fill="#9BA58B"/>
<path d="M11.655 18.2722C11.8796 17.7648 12.5491 17.4059 13.2126 17.4059C14.0722 17.4059 14.7701 18.0115 14.7701 18.7576C14.7701 20.1033 13.2591 21.4249 11.6571 22.0025" fill="#C9D2BA"/>
<path d="M18.9411 5.62547C19.732 5.28854 20.2842 4.53848 20.2842 3.66407C20.2842 2.47681 19.2668 1.51416 18.0127 1.51416C17.1631 1.51416 16.4248 1.95537 16.0344 2.60917C17.2622 3.35121 18.2696 4.39207 18.9391 5.62547H18.9411Z" fill="#C9D2BA"/>
</g>
<defs>
<clipPath id="clip0_8261_61968">
<rect width="24" height="32" fill="white"/>
</clipPath>
</defs>
</svg>
