<svg width="32" height="32" viewBox="0 0 32 32" fill="none" xmlns="http://www.w3.org/2000/svg">
<g clip-path="url(#clip0_8261_61961)">
<path d="M31.961 4.26538C31.961 4.26538 28.0587 16.1767 29.0578 17.8102C30.9813 20.9541 33.2974 30.642 24.1467 30.9045C13.8476 31.1962 1.13521 34.1359 0.136123 28.9857C-0.862964 23.8355 3.89243 21.92 7.63252 18.977C11.3726 16.034 12.5371 3.94126 12.3782 2.35633C12.2192 0.771404 13.5168 -0.486167 17.5001 0.187994C21.4868 0.862156 32.733 1.57845 31.961 4.26538Z" fill="#B3C09B"/>
<path d="M22.512 0.855652C27.1409 1.46823 32.4997 2.38224 31.9612 4.26535C31.9612 4.26535 28.0589 16.1766 29.058 17.8102C30.9816 20.9541 33.2976 30.6419 24.1469 30.9045C21.9022 30.9693 19.5407 31.1573 17.2117 31.3615" fill="#9BA58B"/>
<path d="M21.6686 6.12905C22.1162 5.40627 23.1737 5.01085 24.1339 5.16318C25.3795 5.36089 26.2391 6.44668 26.0574 7.58757C25.7266 9.64571 23.2159 11.3182 20.7538 11.8303C18.574 10.5759 16.7088 8.20663 17.0397 6.1485C17.2214 5.00761 18.3794 4.24269 19.625 4.44365C20.5852 4.59598 21.4675 5.30255 21.6686 6.12905Z" fill="#C9D2BA"/>
<path d="M21.6684 6.12903C22.1161 5.40625 23.1735 5.01083 24.1337 5.16316C25.3793 5.36087 26.2389 6.44666 26.0573 7.58755C25.7264 9.64569 23.2157 11.3181 20.7537 11.8302" fill="#B3C09B"/>
</g>
<defs>
<clipPath id="clip0_8261_61961">
<rect width="32" height="32" fill="white"/>
</clipPath>
</defs>
</svg>
