<svg width="37" height="32" viewBox="0 0 37 32" fill="none" xmlns="http://www.w3.org/2000/svg">
<g clip-path="url(#clip0_8261_61997)">
<path d="M36.9407 10.1845C36.6369 8.4687 35.2129 7.22994 33.5494 7.08119L33.5881 7.0658C33.5881 7.0658 31.5693 2.65192 32.2568 0H26.2854C26.2854 0 27.2201 3.89837 26.7772 7.58387C26.4116 10.6231 25.1086 13.5212 21.5655 13.97C20.3089 14.129 19.199 14.2214 18.218 14.265C17.2369 14.2214 16.1271 14.129 14.8705 13.97C11.3299 13.5212 10.0269 10.6256 9.65871 7.58387C9.21581 3.89837 10.1505 0 10.1505 0H4.17913C4.86923 2.64935 2.84786 7.0658 2.84786 7.0658C1.45995 7.42743 0.337251 8.56103 0.0720273 10.0614C-0.141697 11.2719 0.249701 12.4491 1.02992 13.2852C0.234251 14.1239 -0.164872 15.3114 0.0514274 16.5347C0.265151 17.7453 1.03765 18.7199 2.05734 19.2405C1.599 20.2997 1.62989 21.5513 2.25304 22.626C2.87104 23.6903 3.92936 24.3417 5.0675 24.4828C5.00055 25.6344 5.4589 26.8013 6.41422 27.5989C7.35924 28.3889 8.57979 28.6402 9.69733 28.3863C10.0295 29.4917 10.8612 30.4304 12.0328 30.8536C13.1942 31.2742 14.425 31.0947 15.3881 30.474C16.0782 31.3999 17.1828 31.9974 18.4291 31.9974C19.6754 31.9974 20.7595 31.4101 21.4522 30.4996C22.4178 31.1331 23.6641 31.3203 24.8331 30.8946C25.9944 30.474 26.821 29.5481 27.1583 28.4556C28.2836 28.7223 29.517 28.4735 30.4723 27.6759C31.4174 26.886 31.8783 25.7318 31.8216 24.5931C32.9701 24.4597 34.0438 23.8057 34.667 22.7311C35.285 21.6667 35.321 20.4254 34.8756 19.3739C35.9107 18.8584 36.6935 17.8761 36.9098 16.6553C37.1235 15.4447 36.7321 14.2675 35.9519 13.4314C36.7476 12.5928 37.1467 11.4053 36.9304 10.1819L36.9407 10.1845Z" fill="#B3C09B"/>
<path d="M18.2645 32C19.4979 32 20.7674 31.4127 21.4601 30.5022C22.4257 31.1357 23.672 31.3229 24.841 30.8972C26.0023 30.4766 26.8289 29.5507 27.1662 28.4581C28.2915 28.7249 29.5249 28.4761 30.4802 27.6784C31.4253 26.8885 31.8862 25.7344 31.8295 24.5957C32.978 24.4623 34.0518 23.8083 34.6749 22.7337C35.2929 21.6693 35.3289 20.428 34.8835 19.3765C35.9186 18.8609 36.7014 17.8787 36.9177 16.6578C37.1314 15.4473 36.74 14.2701 35.9598 13.434C36.7555 12.5953 37.1546 11.4079 36.9383 10.1845C36.6345 8.4687 35.2105 7.22994 33.5471 7.08119L33.5857 7.0658C33.5857 7.0658 31.5669 2.65192 32.2544 0H26.283C26.283 0 27.2177 3.89837 26.7748 7.58387C26.4092 10.6231 25.1062 13.5212 21.5631 13.97C20.3065 14.129 19.1966 14.2214 18.2156 14.265" fill="#9BA58B"/>
<path d="M18.2644 17.794C18.5708 17.0631 19.4901 16.545 20.3991 16.545C21.5784 16.545 22.5338 17.417 22.5338 18.4942C22.5338 20.4357 20.4609 22.3413 18.267 23.1748C16.0705 22.3413 14.0002 20.4357 14.0002 18.4942C14.0002 17.417 14.9556 16.545 16.1349 16.545C17.0439 16.545 17.9606 17.0631 18.2696 17.794H18.2644Z" fill="#9BA58B"/>
<path d="M18.2644 17.794C18.5708 17.0631 19.4901 16.545 20.3991 16.545C21.5784 16.545 22.5337 17.417 22.5337 18.4942C22.5337 20.4357 20.4609 22.3413 18.267 23.1748" fill="#C9D2BA"/>
</g>
<defs>
<clipPath id="clip0_8261_61997">
<rect width="37" height="32" fill="white"/>
</clipPath>
</defs>
</svg>
