<svg width="30" height="32" viewBox="0 0 30 32" fill="none" xmlns="http://www.w3.org/2000/svg">
<g clip-path="url(#clip0_8261_62004)">
<path d="M16.5879 11.4232C14.9306 11.2303 13.6717 9.82265 13.6676 8.14827C13.6656 6.2256 12.6193 3.95205 11.9285 2.12172C10.545 -1.54099 9.98302 0.599182 9.84405 0.833103C9.3168 1.70107 8.51163 2.69216 7.50618 2.80707C5.28887 3.06151 1.44691 3.1518 0.578383 5.81521C0.151272 7.12435 0.643778 8.56071 1.73302 9.39995C2.30727 9.84317 3.11857 10.3623 4.2446 10.8999C5.35631 11.4293 6.10427 12.5271 6.13492 13.7624C6.16966 15.1372 5.79569 17.2199 4.36926 20.2916C3.94214 21.213 3.95032 22.28 4.404 23.1869C5.10495 24.5905 6.24323 26.4023 7.36517 26.1828C9.16966 25.8298 8.42171 22.6473 10.5797 22.4257C12.7378 22.2041 17.4462 21.8511 18.7684 23.0454C20.0886 24.2396 21.3659 26.0514 21.1451 27.0672C20.9244 28.0829 26.1193 24.8121 26.2521 24.1944C26.3849 23.5748 25.9435 22.9571 25.7678 22.6473C25.5941 22.3415 28.4449 12.1803 20.528 11.5237C20.3911 11.5114 20.2541 11.5114 20.1172 11.5196C19.5879 11.5442 18.0491 11.5976 16.5879 11.4273V11.4232Z" fill="#B3C09B"/>
<path d="M15.2983 22.2122C16.9107 22.2451 18.1062 22.4462 18.7684 23.0433C20.0885 24.2375 21.3658 26.0494 21.1451 27.0651C20.9244 28.0808 26.1192 24.81 26.252 24.1924C26.3849 23.5727 25.9434 22.9551 25.7677 22.6452C25.594 22.3395 28.4448 12.1783 20.5279 11.5216C20.391 11.5093 20.2541 11.5093 20.1171 11.5175C19.5879 11.5422 18.049 11.5955 16.5878 11.4252C16.2731 11.3883 15.6723 11.1626 15.3923 11.0456" fill="#9BA58B"/>
<path d="M7.1751 5.73109C7.62656 5.73109 7.99254 5.36362 7.99254 4.91031C7.99254 4.45701 7.62656 4.08954 7.1751 4.08954C6.72365 4.08954 6.35767 4.45701 6.35767 4.91031C6.35767 5.36362 6.72365 5.73109 7.1751 5.73109Z" fill="#9BA58B"/>
<path d="M11.8734 1.86111C11.7283 1.84059 11.5975 1.94729 11.5893 2.09298C11.5587 2.7455 11.5137 4.47528 11.8059 5.7085C12.0839 6.87811 13.2242 9.55589 13.6329 10.43C13.7208 10.6188 13.9885 10.6208 14.0784 10.43C14.8509 8.79462 16.7739 2.54236 11.8734 1.85906V1.86111Z" fill="#9BA58B"/>
<path d="M23.6342 15.014C23.6342 15.014 22.0442 11.7945 25.6185 11.735C26.8508 11.7145 28.2036 13.5551 28.688 16.6269C28.782 17.2219 30.1798 18.0837 29.5953 18.2253C27.9727 18.6152 25.3283 18.5659 23.6321 15.014H23.6342Z" fill="#C9D2BA"/>
<path d="M15.3923 15.5271C15.6416 14.9299 16.3855 14.5052 17.1232 14.5052C18.0796 14.5052 18.8541 15.2193 18.8541 16.0995C18.8541 17.6877 17.1743 19.2452 15.3923 19.9264C13.6123 19.2452 11.9304 17.6857 11.9304 16.0995C11.9304 15.2193 12.7049 14.5052 13.6613 14.5052C14.3991 14.5052 15.143 14.9299 15.3923 15.5271Z" fill="#9BA58B"/>
<path d="M15.3923 15.5271C15.6417 14.9299 16.3855 14.5052 17.1233 14.5052C18.0797 14.5052 18.8542 15.2193 18.8542 16.0995C18.8542 17.6877 17.1744 19.2452 15.3923 19.9264" fill="#C9D2BA"/>
<path d="M4.0912 21.9434C6.00196 24.8018 13.0156 32.9726 26.0047 23.4331C26.5095 23.0617 27.1552 22.9325 27.7581 23.1007C28.9495 23.4331 30.613 24.336 29.769 26.7388C27.4924 33.2106 4.25264 34.7188 0.345284 25.4707C0.345284 25.4707 -1.01166 21.2088 1.64501 20.819C2.60346 20.6794 3.55169 21.135 4.0912 21.9414V21.9434Z" fill="#9BA58B"/>
<path d="M15 27.9208C18.1104 27.9208 21.4823 26.7552 26.0048 23.4332C26.5095 23.0618 27.1553 22.9325 27.7582 23.1007C28.9496 23.4332 30.6131 24.336 29.7691 26.7388C28.5429 30.221 22.0851 32.1539 15 31.8584" fill="#C9D2BA"/>
</g>
<defs>
<clipPath id="clip0_8261_62004">
<rect width="30" height="32" fill="white"/>
</clipPath>
</defs>
</svg>
