<svg width="37" height="32" viewBox="0 0 37 32" fill="none" xmlns="http://www.w3.org/2000/svg">
<g clip-path="url(#clip0_8261_62016)">
<path d="M37 14.6071C37 22.6744 29.5948 29.2142 20.4616 29.2142C11.3284 29.2142 3.92578 22.6718 3.92578 14.6071" fill="#B3C09B"/>
<path d="M37.0001 14.6071C37.0001 22.6744 29.5949 29.2142 20.4617 29.2142V14.6071" fill="#9BA58B"/>
<path d="M20.4617 14.6071V0C29.5949 0 37.0001 6.53981 37.0001 14.6071H19.4385" fill="#C9D2BA"/>
<path d="M25.9431 31.723C27.598 31.723 28.9396 30.3923 28.9396 28.7508C28.9396 27.1093 27.598 25.7786 25.9431 25.7786C24.2881 25.7786 22.9465 27.1093 22.9465 28.7508C22.9465 30.3923 24.2881 31.723 25.9431 31.723Z" fill="#C9D2BA"/>
<path d="M14.3432 32C15.9982 32 17.3398 30.6693 17.3398 29.0278C17.3398 27.3864 15.9982 26.0557 14.3432 26.0557C12.6883 26.0557 11.3467 27.3864 11.3467 29.0278C11.3467 30.6693 12.6883 32 14.3432 32Z" fill="#9BA58B"/>
<path d="M4.20498 14.8815L0.952637 11.9327L1.76442 11.1275L5.31955 14.6071L4.20498 14.8815Z" fill="#B3C09B"/>
<path d="M2.64677 11.5417C2.64677 12.2667 2.05425 12.8544 1.32339 12.8544C0.592522 12.8544 0 12.2667 0 11.5417C0 10.8168 0.592522 10.2291 1.32339 10.2291C2.05425 10.2291 2.64677 10.8168 2.64677 11.5417Z" fill="#B3C09B"/>
<path d="M28.6472 7.33204C28.9996 6.91522 29.707 6.76247 30.3047 6.94628C31.08 7.18447 31.5263 7.94823 31.3071 8.65243C30.9077 9.92363 29.1562 10.7495 27.5431 10.8505C26.2719 9.86149 25.3009 8.19418 25.7003 6.92298C25.9222 6.21878 26.7261 5.84078 27.5014 6.08156C28.0991 6.26538 28.595 6.79094 28.6472 7.33204Z" fill="#9BA58B"/>
</g>
<defs>
<clipPath id="clip0_8261_62016">
<rect width="37" height="32" fill="white"/>
</clipPath>
</defs>
</svg>
