<svg width="113" height="32" viewBox="0 0 113 32" fill="none" xmlns="http://www.w3.org/2000/svg">
<g clip-path="url(#clip0_8248_38)">
<path d="M0.191977 13.0267C0.191977 12.4587 0.268413 11.853 0.344256 11.2849C0.382177 10.9064 0.649405 10.7169 1.0304 10.7545C1.29703 10.7922 1.56426 11.0194 1.56426 11.2467C1.56426 11.3979 1.60218 11.5498 1.56426 11.7011C1.56426 12.1555 1.52634 12.61 1.48782 13.0267C1.48782 13.1403 1.52575 13.1403 1.56426 13.1027C1.60218 13.1027 1.6407 13.065 1.6407 13.065C1.94584 12.1561 2.28892 11.2096 2.66991 10.3384C2.89862 9.84626 3.12733 9.39183 3.43248 9.01274C3.73763 8.52063 4.2709 8.14154 4.84269 8.14154C5.30012 8.14154 5.71962 8.33109 6.02418 8.70958C6.44368 9.39124 6.55804 10.2624 6.63388 11.0194C6.6718 12.1932 6.71032 13.3675 6.78616 14.579C6.78616 14.7303 6.78616 14.9198 6.90052 15.0711C6.93844 15.1088 7.0528 15.1088 7.0528 15.1088C7.12923 15.0328 7.20508 14.9192 7.28151 14.8056C7.73894 13.7072 8.15844 12.6094 8.57736 11.511C8.72964 11.2461 8.88251 10.9429 9.03479 10.6398C9.30142 10.2613 9.64449 9.88217 10.1404 9.88217C10.4071 9.88217 10.6743 9.99578 10.8645 10.223C11.0932 10.5261 11.2076 11.0942 11.2455 11.4727C11.3219 11.9271 11.3598 12.3816 11.4363 12.7983C11.5127 13.1768 11.5886 13.5559 11.8173 13.8967C12.0081 14.1616 12.3511 14.3135 12.6557 14.2376C13.7993 14.0103 14.752 13.1774 15.5525 12.4198C15.6669 12.3439 15.7812 12.2303 15.8956 12.1549C16.1243 12.0037 16.4674 12.0037 16.6582 12.1926C16.849 12.3816 16.8869 12.723 16.7346 12.9502C16.7346 12.9879 16.6967 13.0638 16.6582 13.1015C15.8577 13.8967 13.7613 15.5249 12.5413 15.5249C11.8931 15.5249 11.0926 15.1841 10.6737 14.4648C10.4071 14.0863 10.2927 13.6318 10.1784 13.1391C10.1404 12.7607 10.064 12.3816 9.98756 12.0031C9.98756 12.0031 9.94964 11.9654 9.91113 11.9654C9.91113 11.9654 9.87321 11.9654 9.83469 12.0031C9.75826 12.079 9.72033 12.1926 9.6439 12.3062C9.41518 12.9119 9.18647 13.5182 8.95776 14.124C8.69112 14.8056 8.38597 15.4873 8.00498 16.1312C7.77627 16.4721 7.35676 16.8129 6.93785 16.8129C6.06091 16.8129 5.642 15.7904 5.56557 15.0711C5.45121 13.8591 5.37477 12.6094 5.37477 11.3603C5.37477 10.8682 5.26042 10.4137 5.18398 9.95928C5.14606 9.808 5.0317 9.69439 4.99319 9.54252C4.95527 9.42891 4.76447 9.42891 4.68804 9.50485C4.57368 9.65613 4.4214 9.76974 4.34497 9.92161C3.65883 11.0577 3.2014 12.3833 2.85833 13.6324C2.47734 14.9198 2.13427 16.2078 1.7912 17.4951C1.71476 17.76 1.63892 18.0632 1.52456 18.3281C1.48664 18.4793 1.44813 18.593 1.37228 18.7448C1.22 18.9344 1.02921 19.0857 0.762577 19.0857C0.114357 19.0857 0 18.2145 0 17.76C0 16.8135 0.0379215 15.9046 0.114357 14.9575C0.115542 14.39 0.153463 13.7084 0.191977 13.0267Z" fill="#555048"/>
<path d="M14.7522 22.7588C16.544 20.6762 18.7547 18.8585 20.889 17.1543C21.0033 17.0407 21.1556 16.9648 21.3085 16.8135C21.8423 16.3591 21.8423 16.4727 21.8038 15.7151C21.8038 15.1847 21.7659 14.6549 21.7274 14.1246C21.7274 14.0869 21.6895 14.011 21.6509 13.9733C21.613 13.9733 21.5366 14.011 21.4987 14.011C21.3843 14.1622 21.3079 14.3141 21.1935 14.4654C20.9269 14.8822 20.6597 15.3366 20.3551 15.7151C19.8597 16.4344 19.2494 17.1543 18.4875 17.6088C18.2208 17.836 17.8778 17.9119 17.4962 17.9119C17.0008 17.9119 16.6192 17.7224 16.2762 17.4198C16.0854 17.2303 15.9331 17.003 15.8187 16.7382C15.628 16.3597 15.5136 15.9052 15.4757 15.4508C15.3992 14.3524 15.5136 13.2922 15.8187 12.2321C15.9331 11.9672 16.0095 11.7017 16.1997 11.5127C16.3141 11.3615 16.5049 11.2855 16.6951 11.2855C16.8853 11.2855 17.0761 11.3615 17.1904 11.5504C17.2669 11.664 17.3048 11.8153 17.2669 11.9672C17.2669 12.1185 17.1904 12.2703 17.1525 12.3839C16.8859 13.1792 16.7715 13.9368 16.733 14.7697C16.733 15.1482 16.8094 15.5273 16.8853 15.9058C16.9996 16.209 17.1519 16.6251 17.5335 16.6251C17.6479 16.6251 17.8001 16.5875 17.953 16.4739C18.2582 16.2466 18.4869 16.0194 18.7156 15.7545C19.8212 14.3153 20.774 12.763 21.6124 11.1348C21.7268 10.9453 22.0319 10.8317 22.2221 10.8699C22.4888 10.9459 22.6416 11.0972 22.7175 11.3244C22.7554 11.4003 22.7939 11.5139 22.7939 11.5893C22.8704 12.3845 22.9847 13.1798 23.0226 13.975C23.0226 14.3535 23.0226 14.7326 23.1749 15.1111C23.1749 15.1871 23.2513 15.2247 23.2893 15.1871C23.4415 15.0735 23.5944 14.9975 23.7467 14.8839C24.8903 13.975 25.9195 13.2934 27.1395 12.3469C27.2159 12.2709 27.3303 12.1573 27.4061 12.1196C27.6348 11.9684 27.8635 11.9684 28.0923 12.1196C28.2831 12.2332 28.4353 12.4981 28.3589 12.7254C28.3589 12.839 28.2825 12.9526 28.2066 13.0285C27.9779 13.2934 27.6348 13.5206 27.3682 13.7478C26.3011 14.619 25.3098 15.2624 24.2426 16.1336C24.1662 16.1713 24.0904 16.2095 24.0518 16.2849C23.7467 16.5121 23.4801 16.7393 23.2134 16.9665C23.0991 17.3074 23.137 17.6859 23.137 18.0267C22.7939 22.8359 22.1842 27.5316 18.0674 30.7503C17.4191 31.2047 16.6951 31.5832 15.9325 31.8487C15.5515 31.9246 15.2084 32 14.8269 32C13.1879 32 12.1587 30.9775 12.0059 29.3111C12.0082 26.8864 13.2276 24.5766 14.7522 22.7588ZM21.7659 18.404C21.7659 18.3281 21.6136 18.2527 21.5372 18.2904C21.4228 18.404 21.3085 18.48 21.1941 18.5553C20.3936 19.237 19.5931 19.8809 18.7926 20.5626C17.8013 21.4715 16.8106 22.3803 15.9337 23.3651C14.9045 24.5389 14.104 25.9022 13.6086 27.3791C13.3799 27.9848 13.2656 28.6288 13.3035 29.2728C13.3035 29.5377 13.3799 29.7649 13.4943 29.9544C13.6851 30.4089 14.0661 30.6361 14.5235 30.712C14.8666 30.7497 15.1717 30.712 15.5148 30.6361C20.127 28.9696 21.4993 23.4787 21.7659 19.0863V18.404Z" fill="#555048"/>
<path d="M59.6159 3.3706C59.7682 2.4994 59.8826 1.62879 60.0354 0.757595C60.0354 0.416769 60.3406 0.038269 60.6837 0.038269C61.0647 0.038269 61.4077 0.341422 61.3319 0.719922C61.294 0.984813 61.2555 1.28797 61.2175 1.59112C60.9509 2.95442 60.798 4.3554 60.6457 5.71871C60.3027 9.39186 60.3027 13.065 60.3791 16.7382C60.3791 17.1926 60.4555 17.6094 60.5314 18.0638C60.5314 18.0638 60.5693 18.1015 60.5693 18.1397C60.6072 18.1774 60.6457 18.1397 60.6837 18.0638C61.5606 12.9514 64 0.151878 69.9845 0.151878C71.6234 0.151878 72.8813 1.13668 73.2244 2.76488C73.4152 3.56014 73.3388 4.31773 73.148 5.07473C72.5762 7.27097 70.67 9.54314 68.9168 10.9064C68.6881 11.096 68.3829 11.2849 68.1542 11.4745C68.0398 11.5504 67.849 11.5881 67.9255 11.7776C67.9634 11.9289 68.0778 11.9289 68.1921 11.9672C69.4121 12.308 70.8223 12.8761 71.7372 13.7849C73.033 14.921 73.5669 16.3979 73.3761 18.1021C72.8807 21.9265 70.2885 24.2746 66.286 24.2746C65.2188 24.2746 64.1896 24.1233 63.1983 23.8578C62.9696 23.8202 62.7409 23.7442 62.5122 23.6306C62.2835 23.5547 62.1312 23.2139 62.1691 22.9867C62.2456 22.6835 62.5122 22.4563 62.8173 22.4945C62.9317 22.4945 63.0461 22.4945 63.1604 22.5322C64.1517 22.873 65.2568 23.0243 66.3245 23.0243C69.6029 23.0243 71.8136 21.0553 72.1182 17.723C72.1946 16.7005 71.8895 15.7916 71.2033 15.034C70.7838 14.5796 70.2885 14.2388 69.7931 13.9356C68.9926 13.5189 68.1542 13.254 67.2773 13.0268C66.8198 12.9508 66.4003 12.8372 65.9429 12.7995C65.7521 12.7995 65.5234 12.7236 65.3332 12.6859C65.1045 12.61 64.9901 12.421 64.9901 12.1938C64.9522 12.0043 64.9901 11.7771 65.2188 11.6634C65.3711 11.5498 65.5619 11.4362 65.7527 11.3603C68.5352 10.0729 70.8602 7.76308 71.8515 4.84692C72.0423 4.27888 72.0802 3.71083 72.0038 3.18046C71.8895 2.3852 71.4699 1.85483 70.7459 1.55227C70.6315 1.51459 70.5172 1.47633 70.4028 1.47633C69.7546 1.4004 69.107 1.47633 68.4967 1.81716C63.8845 4.27888 61.6353 18.7443 61.2163 23.5918C61.1784 23.819 61.1399 24.0462 61.102 24.2734C61.0255 24.5766 60.7968 24.7655 60.5302 24.7655C60.2251 24.8032 59.9205 24.576 59.882 24.2734C59.7676 23.8949 59.6912 23.5158 59.6533 23.1373C59.501 21.774 59.3481 20.3731 59.2338 19.0098C59.0815 17.0407 59.0815 15.0717 59.043 13.0268C59.0442 9.77036 59.2729 6.58932 59.6159 3.3706Z" fill="#555048"/>
<path d="M78.5609 10.1112C78.9419 10.0735 79.3235 10.2248 79.6666 10.3384C79.8574 10.4144 80.0097 10.4897 80.1619 10.5656C80.2384 10.6033 80.3527 10.5656 80.3906 10.528C80.4671 10.3384 80.5429 10.1871 80.6194 10.0359C80.7337 9.80864 81.0768 9.69503 81.3055 9.77096C81.5721 9.8469 81.7629 10.1118 81.7629 10.3767C81.725 10.7934 81.6486 11.2096 81.6107 11.5887C81.344 13.1033 81.2297 14.6185 81.2297 16.1331C81.2297 16.9283 81.2676 18.4052 81.6871 19.0869C81.8014 19.3141 82.0681 19.4277 82.3732 19.2764C82.5255 19.2005 82.6784 19.0869 82.7927 18.9733C84.165 17.7995 85.6896 14.4289 86.3378 12.7631C86.4142 12.5358 86.5286 12.3086 86.6044 12.1191C86.7952 11.7782 87.2141 11.6646 87.5572 11.8919C87.7095 12.0055 87.7859 12.1567 87.7859 12.3463C87.7859 12.4976 87.6716 12.6112 87.6336 12.7631C86.8711 14.6185 86.1849 16.5121 85.0799 18.2163C84.7368 18.7466 84.3558 19.2764 83.8599 19.7309C83.5932 20.034 83.2881 20.2612 82.945 20.4125C82.6019 20.6021 82.2589 20.6774 81.9158 20.6397C81.344 20.5638 80.8866 20.2989 80.5814 19.8068C80.3148 19.3147 80.1619 18.7843 80.0861 18.2163C79.9717 17.4969 79.8953 16.8153 79.9338 16.0954C79.9338 15.9818 79.9338 15.565 79.7815 15.565C79.7815 15.565 79.7436 15.6409 79.7051 15.6409C79.5528 15.9058 79.3999 16.1331 79.2097 16.3985C78.9431 16.8153 78.6 17.1938 78.2185 17.5346C77.8375 17.8378 77.418 18.0267 76.9605 18.1403C76.6939 18.2163 76.4652 18.2163 76.2365 18.1403C75.055 17.9508 74.8642 16.8906 74.7119 15.9058C74.8636 13.7844 76.0072 10.3378 78.5609 10.1112ZM76.1594 16.5863C76.2359 16.7376 76.4261 16.8895 76.579 16.8895C76.8456 16.8895 77.0364 16.8135 77.2272 16.6622C78.3328 15.9429 79.4379 13.3676 79.8574 12.1938C79.8574 12.1179 79.8195 12.0043 79.7809 11.9666C79.6666 11.8153 79.5143 11.7017 79.3614 11.6258C79.1327 11.5122 78.904 11.4362 78.6753 11.4362C78.4466 11.4362 78.1799 11.5122 77.9512 11.6635C77.6846 11.8147 77.4938 12.042 77.303 12.2692C76.5404 13.2917 76.1215 14.4277 76.083 15.6015C76.083 16.0183 76.083 16.3214 76.1594 16.5863Z" fill="#555048"/>
<path d="M87.747 0.719326C87.747 0.605717 87.7849 0.492108 87.8234 0.3785C87.9378 0.151282 88.1286 0 88.3952 0C88.6239 0 88.8147 0.113609 88.9291 0.303153C88.967 0.340826 89.0055 0.454435 89.0055 0.530371C89.0055 0.757588 89.0055 1.02248 88.9676 1.2497C88.8153 2.30985 88.6625 3.33233 88.5102 4.39307C88.0907 8.02855 87.9005 11.7394 87.7861 15.4125C87.7861 16.0942 87.7861 16.7758 87.824 17.4575C87.824 17.5711 87.824 17.7224 87.862 17.8743C87.8999 17.9119 87.9384 17.9502 87.9763 17.9879C88.0142 17.9879 88.0528 17.9502 88.0528 17.9119C88.205 17.647 88.3194 17.3439 88.4338 17.0407C89.1963 15.223 90.4542 12.7236 91.9788 11.4362C92.5885 10.9818 93.2367 10.7169 94.0372 10.7169C95.1808 10.7169 96.0957 11.3986 96.4767 12.4587C96.5146 12.5346 96.5146 12.5723 96.5146 12.6482C96.6289 12.8755 96.591 13.1786 96.7812 13.3676C97.0099 13.2916 97.2386 13.2163 97.4294 13.1027C98.3822 12.6859 99.3735 12.2697 100.365 11.9666C100.517 11.8907 100.708 11.853 100.86 11.853C101.127 11.8907 101.355 12.0802 101.432 12.3834C101.47 12.5729 101.355 12.8755 101.165 12.9891C100.937 13.1027 100.708 13.1786 100.479 13.254C99.412 13.5948 98.3828 14.0492 97.3536 14.5413C97.3157 14.579 97.2771 14.6173 97.2013 14.6173C96.4387 15.034 96.5531 14.8822 96.3244 15.6397C95.7526 17.4198 94.1516 20.2594 92.4748 21.2819C92.2081 21.4715 91.903 21.5851 91.5978 21.6604C90.9881 21.85 90.4543 21.6604 90.0347 21.2437C89.6152 20.7516 89.463 20.1835 89.6152 19.5772C89.844 18.5171 90.7209 17.5322 91.5214 16.8506C92.3219 16.093 93.2367 15.4496 94.1516 14.8816C94.4182 14.692 94.7234 14.5407 94.99 14.3895C95.2952 14.1999 95.4095 13.9727 95.371 13.6319C95.371 12.8366 95.0279 12.079 94.1131 12.0037C93.7321 11.966 93.389 12.0414 93.0839 12.2309C92.8552 12.4204 92.6264 12.6094 92.3977 12.7989C91.9782 13.2157 91.6351 13.7078 91.2921 14.1999C89.9577 16.4721 89.0429 18.8956 88.2809 21.3949C88.2044 21.6222 88.1286 21.8494 88.0522 22.0766C88.0142 22.1525 87.9757 22.2279 87.8999 22.2661C87.7476 22.4174 87.5568 22.531 87.3281 22.4557C87.0994 22.3798 86.9086 22.2285 86.8707 21.9636C86.4897 19.7673 86.4512 17.4575 86.4512 15.223C86.6414 10.3761 86.8701 5.49089 87.747 0.719326ZM94.6463 16.1701H94.5699C93.3499 16.8894 91.6731 18.1015 91.0634 19.3512C90.949 19.5407 90.8726 19.7679 90.8726 20.0328C90.8347 20.26 91.1013 20.4873 91.33 20.4113C91.4823 20.3736 91.5966 20.2977 91.7495 20.2218C92.1305 19.9946 92.4736 19.6537 92.8166 19.3129C93.5792 18.4417 94.1889 17.4952 94.6463 16.435C94.6843 16.3591 94.6843 16.3214 94.6843 16.2455C94.6843 16.2455 94.6463 16.2078 94.6463 16.1701Z" fill="#555048"/>
<path d="M99.3733 22.7588C101.165 20.6762 103.376 18.8585 105.51 17.1543C105.624 17.0407 105.777 16.9648 105.93 16.8135C106.463 16.3591 106.463 16.4727 106.425 15.7151C106.425 15.1847 106.387 14.6549 106.348 14.1246C106.348 14.0869 106.311 14.011 106.272 13.9733C106.234 13.9733 106.158 14.011 106.12 14.011C106.005 14.1622 105.929 14.3141 105.815 14.4654C105.548 14.8822 105.281 15.3366 104.976 15.7151C104.481 16.4344 103.871 17.1543 103.109 17.6088C102.842 17.836 102.499 17.9119 102.117 17.9119C101.622 17.9119 101.24 17.7224 100.897 17.4198C100.706 17.2303 100.554 17.003 100.44 16.7382C100.249 16.3597 100.135 15.9052 100.097 15.4508C100.02 14.3524 100.135 13.2922 100.44 12.2321C100.554 11.9672 100.631 11.7017 100.821 11.5127C100.935 11.3615 101.126 11.2855 101.316 11.2855C101.506 11.2855 101.697 11.3615 101.812 11.5504C101.888 11.664 101.926 11.8153 101.888 11.9672C101.888 12.1185 101.812 12.2703 101.774 12.3839C101.507 13.1792 101.393 13.9368 101.354 14.7697C101.354 15.1482 101.431 15.5273 101.506 15.9058C101.621 16.209 101.773 16.6251 102.155 16.6251C102.269 16.6251 102.421 16.5875 102.574 16.4739C102.879 16.2466 103.108 16.0194 103.337 15.7545C104.442 14.3153 105.395 12.763 106.234 11.1348C106.348 10.9453 106.653 10.8317 106.843 10.8699C107.11 10.9459 107.263 11.0972 107.339 11.3244C107.377 11.4003 107.415 11.5139 107.415 11.5893C107.491 12.3845 107.606 13.1798 107.644 13.975C107.644 14.3535 107.644 14.7326 107.796 15.1111C107.796 15.1871 107.872 15.2247 107.91 15.1871C108.063 15.0735 108.216 14.9975 108.368 14.8839C109.511 13.975 110.541 13.2934 111.761 12.3469C111.837 12.2709 111.951 12.1573 112.027 12.1196C112.256 11.9684 112.485 11.9684 112.713 12.1196C112.904 12.2332 113.056 12.4981 112.98 12.7254C112.98 12.839 112.904 12.9526 112.828 13.0285C112.599 13.2934 112.256 13.5206 111.989 13.7478C110.922 14.619 109.931 15.2624 108.864 16.1336C108.787 16.1713 108.711 16.2095 108.673 16.2849C108.368 16.5121 108.101 16.7393 107.835 16.9665C107.72 17.3074 107.758 17.6859 107.758 18.0267C107.415 22.8359 106.805 27.5316 102.688 30.7503C102.04 31.2047 101.316 31.5832 100.554 31.8487C100.173 31.9246 99.8295 32 99.448 32C97.809 32 96.7798 30.9775 96.627 29.3111C96.6287 26.8864 97.8481 24.5766 99.3733 22.7588ZM106.387 18.404C106.387 18.3281 106.235 18.2527 106.158 18.2904C106.044 18.404 105.93 18.48 105.815 18.5553C105.015 19.237 104.214 19.8809 103.414 20.5626C102.422 21.4715 101.432 22.3803 100.555 23.3651C99.5256 24.5389 98.7251 25.9022 98.2297 27.3791C98.001 27.9848 97.8867 28.6288 97.9246 29.2728C97.9246 29.5377 98.001 29.7649 98.1154 29.9544C98.3062 30.4089 98.6872 30.6361 99.1446 30.712C99.4877 30.7497 99.7928 30.712 100.136 30.6361C104.748 28.9696 106.12 23.4787 106.387 19.0863C106.387 18.8585 106.387 18.6312 106.387 18.404Z" fill="#555048"/>
<path d="M50.845 10.5409C50.845 8.20983 48.943 6.32086 46.5972 6.32086C45.1349 6.32086 43.845 7.0549 43.0812 8.17274C42.3174 7.05549 41.0275 6.32086 39.5652 6.32086C37.2188 6.32086 35.3174 8.21042 35.3174 10.5409C35.3174 15.0682 43.0753 19.8992 43.0753 19.8992C43.0753 19.8992 50.845 15.0434 50.845 10.5409Z" fill="#DDA8B9"/>
</g>
<defs>
<clipPath id="clip0_8248_38">
<rect width="113" height="32" fill="white"/>
</clipPath>
</defs>
</svg>
